<svg id="Calque_1" data-name="Calque 1" xmlns="http://www.w3.org/2000/svg" viewBox="0 0 1080 1080"><defs><style>.cls-1{fill:#fff;}</style></defs><title>Plan de travail 1</title><path class="cls-1" d="M487.41,1060.93c25.17-8.38,38.78-26.71,42.24-52.44a254.38,254.38,0,0,0,1.92-36.93q-.59-45.87-2.36-91.72c-.62-16-2-32.07-3.84-48-1.26-10.92-6.78-19.94-16.5-25.62q-15.19-8.88-30.85-17c-25.23-13.05-49.23-27.69-70-47.52-27.09-25.92-39.84-57.87-41.86-94.61-1.37-24.92,3.16-49.26,8.77-73.37,10.06-43.29,24.37-85.23,40.78-126.48,4.05-10.17,8.18-20.31,12.26-30.43l5,.5c-.34,1.11-.54,1.85-.78,2.56-8.07,23.53-16.48,46.94-24.12,70.6-11.79,36.47-22.17,73.32-28.93,111.13-5.23,29.28-3.88,58,7.45,85.63a163.45,163.45,0,0,0,54.13,69.86c7.17,5.37,14.91,10,22.4,14.95-3.48-4.14-7.66-7.27-11.47-10.81-17.81-16.57-30.72-36.53-40-58.89-4.48-10.73-8.32-21.66-8.84-33.45-.24-5.5,1.31-7.22,6.74-6.44,5.8.84,11.51,2.23,17.27,3.36,23.55,4.6,44.38-.79,62.46-16.75,13.09-11.55,22.42-25.88,30.85-40.92,11-19.72,19.92-40.28,21.2-63.14,1.89-33.88,3.22-67.8,4.6-101.71,2.49-61.43,5.31-122.81,17.13-183.36,4.51-23.12,10.49-45.81,21.45-66.85,17-32.59,41.63-55.76,78.64-63.53,2.63-.55,3-2,3.33-4.1,2.46-15.24,4.9-30.48,7.52-45.69,1.21-7,2-14.18,4.41-20.8,3.24-9.07,8.2-11.58,15.74-10.21C705,50.72,716,52.65,727,54.21c5.6.79,8.12,4.11,9,9a88.21,88.21,0,0,1,.74,10.07,9,9,0,0,0,1.33.44C765.7,77.93,793.33,82,821,86.27c52,8,104,16.09,156.09,23.94,4.19.63,8.39,1.14,12.58,1.5A315.92,315.92,0,0,0,755.21,8H324.79C149.83,8,8,149.83,8,324.79V755.21C8,930.17,149.83,1072,324.79,1072h125.8C462.93,1068.52,475.25,1065,487.41,1060.93Z"/><path class="cls-1" d="M1063.45,333.65c-10.82-11-20.84-22.82-31.15-34.34-20.79-23.22-45.92-38.72-77-44.07-31.32-5.4-62.6-11-93.9-16.58Q794.61,226.83,727.78,215c-4.63-.82-9.28-1.56-13.57-2.28-1.68,4.47-2.88,8.48-4.68,12.2s-4.8,6.72-9.49,6c-12.51-1.94-25-3.81-37.42-6.4-2.79-.59-6.4-3.6-7.17-6.22-1.48-5-1.54-10.54-1.51-15.85,0-4,1.11-8,1.85-12.81-1.46,1.06-2.09,1.47-2.66,1.95-11.46,9.67-19.7,21.71-25.87,35.24-13.12,28.73-16.83,59.28-16.67,90.4.19,36,4.24,71.6,10,107.06a631.46,631.46,0,0,0,22.33,94.28c6.88,21.14,14.39,42.11,20.58,63.45,9.71,33.41,11.2,67.22,2.52,101.21-8.08,31.66-21.64,60.18-46.58,82.25-3.64,3.21-7.55,6.12-11.45,9.27.42.12.6.24.71.19.56-.22,1.12-.47,1.66-.74a164.38,164.38,0,0,0,56.46-46.42c29.25-38,40.66-80.51,29.91-127.77-5.42-23.81-11.65-47.48-18.7-70.86-9.41-31.2-19.95-62.05-30.06-93-2.19-6.68-4.62-13.29-6.93-19.89,5.41-2.23,6.2,1.73,7.48,4.73,19,44.49,36.12,89.71,48.75,136.48,7.14,26.46,13.18,53.21,13.34,80.82.19,31.68-8,60.83-27.33,86.35-15.86,20.88-35.91,37-58.36,50.14-16.38,9.58-33.2,18.41-49.92,27.39-12.78,6.87-20.37,17.16-21.9,31.72-.75,7.22-2,14.42-2.2,21.65-.88,37-1.81,74.11-2,111.17-.08,14.93.31,30.11,2.91,44.74,4.94,27.82,21.76,45.77,49.5,52.86,8.23,2.1,16.47,4.13,24.71,6.17l6.36,1.58H755.21c175,0,316.79-141.83,316.79-316.79V341.56C1069.06,339.07,1066.2,336.45,1063.45,333.65Z"/></svg>